<?xml version="1.0" encoding="utf-8"?>
<svg width="800" height="800" viewBox="0 0 32 32" fill="none" xmlns="http://www.w3.org/2000/svg">
  <defs>
    <linearGradient id="chromeSparkFill" x1="7" y1="5" x2="24" y2="27">
      <stop offset="0" stop-color="#ffffff"/>
      <stop offset="0.35" stop-color="#cfd0dc"/>
      <stop offset="0.58" stop-color="#ffffff"/>
      <stop offset="1" stop-color="#8d8fa0"/>
    </linearGradient>
    <linearGradient id="chromeSparkStroke" x1="8" y1="4" x2="24" y2="28">
      <stop offset="0" stop-color="#ffffff"/>
      <stop offset="1" stop-color="#737586"/>
    </linearGradient>
  </defs>
  <path
    d="M14.5 2.5C16.15 10.9 20.1 14.85 28.5 16.5C20.1 18.15 16.15 22.1 14.5 30.5C12.85 22.1 8.9 18.15 0.5 16.5C8.9 14.85 12.85 10.9 14.5 2.5Z"
    fill="url(#chromeSparkFill)"
    stroke="url(#chromeSparkStroke)"
    stroke-width="1.7"
    stroke-linejoin="round"
  />
  <path
    d="M25 4.5C25.55 7.35 26.9 8.7 29.75 9.25C26.9 9.8 25.55 11.15 25 14C24.45 11.15 23.1 9.8 20.25 9.25C23.1 8.7 24.45 7.35 25 4.5Z"
    fill="#ffffff"
    stroke="#bfc0cf"
    stroke-width="0.8"
    stroke-linejoin="round"
  />
</svg>
